<?xml version="1.0" standalone="no"?><!DOCTYPE svg PUBLIC "-//W3C//DTD SVG 1.1//EN" "http://www.w3.org/Graphics/SVG/1.1/DTD/svg11.dtd"><svg t="1548743436183" class="icon" style="" viewBox="0 0 1024 1024" version="1.1" xmlns="http://www.w3.org/2000/svg" p-id="5080" xmlns:xlink="http://www.w3.org/1999/xlink" width="14" height="14"><defs><style type="text/css"></style></defs><path d="M555.562667 977.066667a1874.069333 1874.069333 0 0 0-62.954667-1.173334c-37.504 0-73.365333 1.450667-108.138667 2.922667-30.976 1.28-60.586667 2.517333-88.298666 2.517333-66.026667 0-121.984-6.698667-161.386667-35.413333C101.632 921.6 85.333333 884.949333 85.333333 833.621333c0-173.077333 182.570667-314.090667 407.253334-314.090666 47.872 0 93.824 6.4 136.490666 18.112a262.144 262.144 0 0 0-73.386666 43.776 475.904 475.904 0 0 0-63.082667-4.16c-192.426667 0-349.098667 114.261333-349.098667 254.570666 0 34.858667 9.578667 58.24 28.693334 71.573334 35.157333 24.426667 113.92 21.333333 204.8 17.856 36.842667-1.429333 75.093333-2.88 115.605333-2.88 3.882667 0 7.744 0 11.584 0.042666a261.738667 261.738667 0 0 0 51.370667 58.624z m-179.733334-546.005334c-71.552-41.109333-116.224-117.845333-115.946666-200.021333C259.882667 103.68 364.309333 0 492.586667 0 620.885333 0 725.333333 103.68 725.333333 231.04c0 82.176-44.672 158.933333-116.501333 200.021333a235.968 235.968 0 0 1-116.48 30.741334c-40.32 0-80.618667-10.069333-116.522667-30.741334z m116.629334-373.333333c-96.362667 0-174.698667 77.653333-174.4 173.226667a173.269333 173.269333 0 0 0 87.210666 150.037333 176.810667 176.810667 0 0 0 174.677334 0c53.802667-31.061333 87.210667-88.512 87.210666-150.058667 0-95.530667-78.336-173.226667-174.698666-173.226666z" p-id="5081" fill="#1890ff"></path><path d="M674.304 968.789333l-31.658667-30.72c-0.32-0.298667-0.085333-0.853333 0.362667-0.853333h190.421333c52.224 0 94.570667-41.066667 94.570667-91.733333 0-46.08-35.008-84.224-80.64-90.752a0.490667 0.490667 0 0 1-0.426667-0.490667 0.512 0.512 0 0 0-0.512-0.512H617.237333c-22.378667 0-40.533333-17.6-40.533333-39.317333s18.154667-39.338667 40.533333-39.338667h256.213334l0.832-0.021333c6.741333-0.128 15.125333-3.626667 20.266666-8.618667 10.56-10.24 9.066667-30.357333-1.493333-40.597333L816.64 551.68a27.605333 27.605333 0 0 0-38.229333 0 25.664 25.664 0 0 0 0 37.077333l34.069333 33.045334c0.32 0.298667 0.085333 0.853333-0.362667 0.853333h-194.88c-52.224 0-94.570667 41.066667-94.570666 91.733333 0 46.08 35.008 84.224 80.64 90.773334 0.234667 0.021333 0.426667 0.234667 0.426666 0.490666 0 0.128 0.064 0.256 0.149334 0.362667 0.106667 0.085333 0.213333 0.149333 0.362666 0.149333h229.184c22.378667 0 40.533333 17.6 40.533334 39.317334s-18.154667 39.317333-40.533334 39.317333h-256.213333l-1.856 0.085333c-5.866667 0.64-13.290667 3.2-17.792 7.552-10.496 10.197333-7.893333 29.269333 2.624 39.466667l76.074667 73.792c10.496 10.176 27.52 10.176 38.037333 0a25.557333 25.557333 0 0 0 0-36.906667z" p-id="5082" fill="#1890ff"></path></svg>