<?xml version="1.0" standalone="no"?><!DOCTYPE svg PUBLIC "-//W3C//DTD SVG 1.1//EN" "http://www.w3.org/Graphics/SVG/1.1/DTD/svg11.dtd"><svg t="1564971596424" class="icon" viewBox="0 0 1024 1024" version="1.1" xmlns="http://www.w3.org/2000/svg" p-id="6511" xmlns:xlink="http://www.w3.org/1999/xlink" width="13" height="13"><defs><style type="text/css"></style></defs><path d="M931.996488 33.792762c8.822147 12.603067 13.233221 26.54521 13.233221 41.905198V948.381597a71.679945 71.679945 0 0 1-13.154452 41.905198 76.484864 76.484864 0 0 1-35.524895 27.726748 76.87871 76.87871 0 0 1-29.853516 5.356304 80.344554 80.344554 0 0 1-56.162418-21.661522L511.999273 714.5947l-298.535155 287.113625a80.65963 80.65963 0 0 1-86.015934 16.226449 76.484864 76.484864 0 0 1-35.446126-27.726748A71.679945 71.679945 0 0 1 78.768837 948.381597V75.619191C78.768837 60.337972 83.17991 46.474598 91.923288 33.871531A76.484864 76.484864 0 0 1 127.448184 6.066014 74.98825 74.98825 0 0 1 157.3017 0.000788h709.473915c10.239992 0 20.243677 2.047998 29.774747 6.065226 14.335989 5.513842 26.702749 15.123681 35.446126 27.726748z m-76.406095 69.947023a62.148875 62.148875 0 0 0-28.987054-20.479984A67.032564 67.032564 0 0 0 802.263665 78.769958h-580.528784a67.111333 67.111333 0 0 0-24.418443 4.489843 62.070106 62.070106 0 0 0-28.987055 20.479984A49.309501 49.309501 0 0 0 157.538007 134.696069v675.83948a49.467039 49.467039 0 0 0 10.791376 30.956284c13.390759 11.657837 23.079367 18.431986 29.065824 20.479984a67.268871 67.268871 0 0 0 24.418443 4.489843c17.329217 0 21.740291-5.513842 35.052281-16.541526L511.999273 598.961558l259.071801 242.609044c12.445529 10.555069 14.178451 24.733519 31.113822 24.418443a68.923024 68.923024 0 0 0 24.418443-3.938459 62.070106 62.070106 0 0 0 29.144593-20.479984 49.467039 49.467039 0 0 0 10.712607-30.956284V134.696069a49.38827 49.38827 0 0 0-10.791377-30.956284z" fill="#1890FF" p-id="6512"></path></svg>