<?xml version="1.0" standalone="no"?><!DOCTYPE svg PUBLIC "-//W3C//DTD SVG 1.1//EN" "http://www.w3.org/Graphics/SVG/1.1/DTD/svg11.dtd"><svg t="1565229684519" class="icon" viewBox="0 0 1024 1024" version="1.1" xmlns="http://www.w3.org/2000/svg" p-id="6188" width="16" height="16" xmlns:xlink="http://www.w3.org/1999/xlink"><defs><style type="text/css"></style></defs><path d="M202.104994 720.842105c0 156.294737 129.616842 282.947368 289.576421 282.947369 159.905684 0 289.522526-126.652632 289.522526-282.947369s-129.616842-282.947368-289.522526-282.947368c-159.959579 0-289.576421 126.652632-289.576421 282.947368z" fill="#E8F1FE" p-id="6189"></path><path d="M559.21152 1013.113263A110.430316 110.430316 0 0 1 511.999731 1024c-15.629474 0-32.875789-3.772632-46.834527-10.725053C246.89152 908.234105 53.894467 741.052632 53.894467 556.624842V175.265684c0-44.894316 28.025263-84.668632 68.230737-99.058526C255.406888 24.144842 373.651941 0 511.999731 0s256.538947 24.144842 388.688842 75.722105A105.472 105.472 0 0 1 970.104994 175.211789v381.413053c0 184.32-192.943158 351.609263-410.893474 456.488421z" fill="#001329" p-id="6190"></path><path d="M513.023731 233.525895A223.824842 223.824842 0 0 0 289.414467 457.027368a223.824842 223.824842 0 0 0 223.609264 223.663158 223.878737 223.878737 0 0 0 223.555368-223.609263 223.824842 223.824842 0 0 0-223.555368-223.501474zM808.420783 458.105263A296.744421 296.744421 0 0 1 511.999731 754.526316 296.744421 296.744421 0 0 1 215.578678 458.105263a296.636632 296.636632 0 0 1 296.421053-296.367158A296.636632 296.636632 0 0 1 808.420783 458.105263z" fill="#FFFFFF" p-id="6191"></path><path d="M772.20352 188.793263c14.551579 14.821053 14.551579 38.804211 0 53.625263L297.229204 725.423158a36.864 36.864 0 0 1-52.762947 0 38.426947 38.426947 0 0 1 0-53.625263l474.920421-483.004632a36.864 36.864 0 0 1 52.816842 0z" fill="#FFFFFF" p-id="6192"></path></svg>