<?xml version="1.0" standalone="no"?><!DOCTYPE svg PUBLIC "-//W3C//DTD SVG 1.1//EN" "http://www.w3.org/Graphics/SVG/1.1/DTD/svg11.dtd"><svg t="1562845955167" class="icon" viewBox="0 0 1024 1024" version="1.1" xmlns="http://www.w3.org/2000/svg" p-id="7535" xmlns:xlink="http://www.w3.org/1999/xlink" width="14" height="14"><defs><style type="text/css"></style></defs><path d="M512 0a512 512 0 1 1 0 1024A512 512 0 0 1 512 0z m0 73.142857a438.857143 438.857143 0 1 0 0 877.714286A438.857143 438.857143 0 0 0 512 73.142857z m34.084571 146.285714h65.974858v391.021715c0 62.756571-12.873143 109.421714-38.619429 141.604571-28.964571 35.401143-75.629714 53.101714-139.190857 53.101714-53.906286 0-94.939429-15.286857-123.904-44.251428-30.573714-30.573714-45.056-74.020571-45.056-130.340572v-20.114285h65.974857v19.309714c0 77.238857 34.596571 116.662857 104.594286 116.662857 38.619429 0 66.779429-12.068571 84.48-34.596571 16.896-21.723429 25.746286-56.32 25.746285-103.789715V219.428571z" fill="#1890FF" p-id="7536"></path></svg>