<?xml version="1.0" standalone="no"?><!DOCTYPE svg PUBLIC "-//W3C//DTD SVG 1.1//EN" "http://www.w3.org/Graphics/SVG/1.1/DTD/svg11.dtd"><svg t="1562845976480" class="icon" viewBox="0 0 1024 1024" version="1.1" xmlns="http://www.w3.org/2000/svg" p-id="8135" xmlns:xlink="http://www.w3.org/1999/xlink" width="14" height="14"><defs><style type="text/css"></style></defs><path d="M512 0a512 512 0 1 1 0 1024A512 512 0 0 1 512 0z m0 73.142857a438.857143 438.857143 0 1 0 0 877.714286A438.857143 438.857143 0 0 0 512 73.142857z m9.728 145.700572c85.284571 0 153.673143 28.16 203.556571 86.089142 46.665143 54.710857 70.802286 125.513143 70.802286 213.211429 0 86.893714-24.137143 156.891429-70.802286 211.602286-49.883429 57.124571-118.272 86.089143-204.361142 86.089143s-153.673143-28.964571-203.556572-86.089143c-47.469714-54.710857-70.802286-125.513143-70.802286-211.602286 0-86.893714 23.332571-157.696 70.802286-212.406857 49.883429-57.929143 117.467429-86.893714 204.361143-86.893714z m0 58.733714c-65.974857 0-118.272 22.528-156.086857 68.388571-35.401143 43.446857-53.101714 100.571429-53.101714 172.178286 0 70.802286 17.700571 127.926857 53.101714 171.373714 37.010286 45.056 89.307429 67.584 155.282286 67.584 65.974857 0 118.272-22.528 155.282285-65.974857 35.401143-43.446857 53.906286-100.571429 53.906286-172.982857 0-73.216-18.505143-131.145143-53.906286-174.592-37.010286-44.251429-88.502857-65.974857-154.477714-65.974857z" fill="#1890FF" p-id="8136"></path></svg>