<?xml version="1.0" standalone="no"?><!DOCTYPE svg PUBLIC "-//W3C//DTD SVG 1.1//EN" "http://www.w3.org/Graphics/SVG/1.1/DTD/svg11.dtd"><svg t="1562845984580" class="icon" viewBox="0 0 1024 1024" version="1.1" xmlns="http://www.w3.org/2000/svg" p-id="8255" xmlns:xlink="http://www.w3.org/1999/xlink" width="14" height="14"><defs><style type="text/css"></style></defs><path d="M512 0a512 512 0 1 1 0 1024A512 512 0 0 1 512 0z m0 73.142857a438.857143 438.857143 0 1 0 0 877.714286A438.857143 438.857143 0 0 0 512 73.142857zM304.64 230.107429h234.934857c131.949714 0 197.924571 56.32 197.924572 168.96 0 113.444571-66.779429 170.569143-198.729143 170.569142H370.614857V804.571429h-65.974857V230.107429z m65.974857 57.124571v225.28h164.937143c46.665143 0 80.457143-9.654857 102.985143-28.16 21.723429-18.505143 32.987429-46.665143 32.987428-85.284571 0-38.619429-11.264-66.779429-33.792-83.675429-22.528-19.309714-56.32-28.16-102.180571-28.16H370.614857z" fill="#1890FF" p-id="8256"></path></svg>