<?xml version="1.0" standalone="no"?><!DOCTYPE svg PUBLIC "-//W3C//DTD SVG 1.1//EN" "http://www.w3.org/Graphics/SVG/1.1/DTD/svg11.dtd"><svg t="1562845991549" class="icon" viewBox="0 0 1024 1024" version="1.1" xmlns="http://www.w3.org/2000/svg" p-id="8375" xmlns:xlink="http://www.w3.org/1999/xlink" width="14" height="14"><defs><style type="text/css"></style></defs><path d="M512 0a512 512 0 1 1 0 1024A512 512 0 0 1 512 0z m0 73.142857a438.857143 438.857143 0 1 0 0 877.714286A438.857143 438.857143 0 0 0 512 73.142857z m-5.339429 156.964572c85.284571 0 153.673143 28.16 203.556572 86.089142 46.665143 54.710857 70.802286 125.513143 70.802286 213.211429 0 86.893714-24.137143 156.891429-70.802286 211.602286-1.609143 1.609143-3.218286 3.218286-4.022857 4.827428 22.528 28.964571 44.251429 59.538286 65.974857 90.916572l-43.446857 37.814857c-22.528-32.182857-44.251429-62.756571-65.974857-91.721143-43.446857 28.964571-95.744 44.251429-156.891429 44.251429-86.089143 0-153.673143-28.964571-203.556571-86.089143-47.469714-54.710857-70.802286-125.513143-70.802286-211.602286 0-86.893714 23.332571-157.696 70.802286-212.406857 49.883429-57.929143 117.467429-86.893714 204.361142-86.893714z m0 58.733714c-65.974857 0-118.272 22.528-156.086857 68.388571-35.401143 43.446857-53.101714 100.571429-53.101714 172.178286 0 70.802286 17.700571 127.926857 53.101714 171.373714 37.010286 45.056 89.307429 67.584 155.282286 67.584 47.469714 0 87.698286-11.264 119.881143-33.792a1556.48 1556.48 0 0 0-96.548572-112.64l39.424-37.814857c32.987429 35.401143 65.974857 72.411429 98.157715 111.835429 32.182857-42.642286 48.274286-98.157714 48.274285-166.546286 0-73.216-18.505143-131.145143-53.906285-174.592-37.010286-44.251429-88.502857-65.974857-154.477715-65.974857z" fill="#1890FF" p-id="8376"></path></svg>