<?xml version="1.0" standalone="no"?><!DOCTYPE svg PUBLIC "-//W3C//DTD SVG 1.1//EN" "http://www.w3.org/Graphics/SVG/1.1/DTD/svg11.dtd"><svg t="1562845999472" class="icon" viewBox="0 0 1024 1024" version="1.1" xmlns="http://www.w3.org/2000/svg" p-id="8495" xmlns:xlink="http://www.w3.org/1999/xlink" width="14" height="14"><defs><style type="text/css"></style></defs><path d="M512 0a512 512 0 1 1 0 1024A512 512 0 0 1 512 0z m0 73.142857a438.857143 438.857143 0 1 0 0 877.714286A438.857143 438.857143 0 0 0 512 73.142857zM304.64 230.107429h247.808c57.124571 0 102.180571 12.873143 135.168 39.424 33.792 27.355429 51.492571 67.584 51.492571 120.685714 0 32.182857-8.850286 60.342857-26.550857 85.284571-19.309714 25.746286-45.056 41.837714-78.043428 49.883429v1.609143c54.710857 12.068571 85.284571 46.665143 91.721143 104.594285l8.850285 88.502858c3.218286 35.401143 13.677714 63.561143 30.573715 84.48h-71.606858c-12.873143-19.309714-20.918857-44.251429-23.332571-76.434286L663.478857 651.702857c-3.218286-33.792-15.286857-58.733714-36.205714-73.216-19.309714-14.482286-46.665143-20.918857-82.870857-20.918857H370.614857V804.571429h-65.974857V230.107429z m65.974857 57.124571v213.211429h173.787429c41.837714 0 74.825143-10.459429 97.353143-29.769143 20.114286-18.505143 30.573714-44.251429 30.573714-78.043429 0-35.401143-10.459429-61.952-29.769143-78.848-20.918857-17.700571-53.906286-26.550857-98.157714-26.550857H370.614857z" fill="#1890FF" p-id="8496"></path></svg>