<?xml version="1.0" standalone="no"?><!DOCTYPE svg PUBLIC "-//W3C//DTD SVG 1.1//EN" "http://www.w3.org/Graphics/SVG/1.1/DTD/svg11.dtd"><svg t="1561453731263" class="icon" viewBox="0 0 1080 1024" version="1.1" xmlns="http://www.w3.org/2000/svg" p-id="11165" width="12.65625" height="12" xmlns:xlink="http://www.w3.org/1999/xlink"><defs><style type="text/css"></style></defs><path d="M462.222222 739.384889C363.349333 739.384889 227.555556 612.124444 227.555556 455.111111 227.555556 297.984 367.616 170.666667 540.444444 170.666667S853.333333 297.984 853.333333 455.054222c0 207.473778-123.448889 341.276444-370.346666 401.351111 26.567111-77.994667 19.626667-117.020444-20.764445-117.020444z m28.16-55.978667c48.241778 0 68.209778 28.899556 59.904 86.698667C714.410667 704.853333 796.444444 594.773333 796.444444 439.864889 796.444444 322.616889 681.813333 227.555556 540.444444 227.555556S284.444444 322.616889 284.444444 439.864889s113.777778 243.541333 205.937778 243.541333z" fill="#1890ff" p-id="11166"></path><path d="M401.066667 398.222222h58.88a85.333333 85.333333 0 1 0 160.995555 0h58.88a142.222222 142.222222 0 1 1-278.755555 0z" fill="#1890ff" p-id="11167"></path><path d="M0 341.333333m56.888889 0l0 0q56.888889 0 56.888889 56.888889l0 113.777778q0 56.888889-56.888889 56.888889l0 0q-56.888889 0-56.888889-56.888889l0-113.777778q0-56.888889 56.888889-56.888889Z" fill="#1890ff" p-id="11168"></path><path d="M625.777778 910.222222m0 56.888889l0 0q0 56.888889-56.888889 56.888889l-113.777778 0q-56.888889 0-56.888889-56.888889l0 0q0-56.888889 56.888889-56.888889l113.777778 0q56.888889 0 56.888889 56.888889Z" fill="#1890ff" p-id="11169"></path><path d="M967.111111 341.333333m56.888889 0l0 0q56.888889 0 56.888889 56.888889l0 113.777778q0 56.888889-56.888889 56.888889l0 0q-56.888889 0-56.888889-56.888889l0-113.777778q0-56.888889 56.888889-56.888889Z" fill="#1890ff" p-id="11170"></path><path d="M59.847111 455.111111c26.737778-256 231.708444-455.111111 480.597333-455.111111C807.480889 0 1024 229.262222 1024 512c0 272.668444-201.272889 495.502222-455.111111 511.146667v-57.002667c222.378667-15.644444 398.222222-212.992 398.222222-454.144 0-251.335111-191.032889-455.111111-426.666667-455.111111-217.6 0-397.084444 173.738667-423.367111 398.222222H59.847111z" fill="#1890ff" p-id="11171"></path></svg>