<?xml version="1.0" standalone="no"?><!DOCTYPE svg PUBLIC "-//W3C//DTD SVG 1.1//EN" "http://www.w3.org/Graphics/SVG/1.1/DTD/svg11.dtd"><svg t="1561453747689" class="icon" viewBox="0 0 1160 1024" version="1.1" xmlns="http://www.w3.org/2000/svg" p-id="11502" width="13.59375" height="12" xmlns:xlink="http://www.w3.org/1999/xlink"><defs><style type="text/css"></style></defs><path d="M1092.266667 68.266667v887.466666H68.266667V68.266667h1024z m7.168-68.266667H61.098667C27.511467 0 0 26.350933 0 58.504533v906.990934c0 32.1536 27.511467 58.504533 61.098667 58.504533h1038.336c33.5872 0 61.098667-26.350933 61.098666-58.504533V58.504533C1160.533333 26.350933 1133.021867 0 1099.434667 0z" fill="#1890ff" p-id="11503"></path><path d="M0 0h1160.533333v136.533333H0V0z m341.333333 341.333333a486.877867 486.877867 0 0 0-62.600533 238.933334c0 83.7632 19.933867 161.3824 62.600533 238.933333h-62.600533C227.5328 741.649067 204.8 664.029867 204.8 580.266667a403.456 403.456 0 0 1 73.9328-235.861334H341.333333V341.333333z m477.866667 477.866667a486.877867 486.877867 0 0 0 62.600533-238.933333c0-83.7632-19.933867-161.3824-62.600533-238.933334h62.600533C933.000533 418.884267 955.733333 496.503467 955.733333 580.266667a403.456 403.456 0 0 1-73.9328 235.861333H819.2V819.2z" fill="#1890ff" p-id="11504"></path><path d="M750.933333 750.933333H657.8176L578.56 623.342933 499.234133 750.933333H409.6l117.213867-168.96L416.494933 409.6h86.2208l75.776 127.5904L650.990933 409.6h86.2208L626.824533 581.973333z" fill="#1890ff" p-id="11505"></path></svg>