<svg xmlns="http://www.w3.org/2000/svg" xmlns:xlink="http://www.w3.org/1999/xlink" width="14" height="11.97" viewBox="0 0 14 11.97">
  <defs>
    <style>
      .cls-1 {
        fill: #fff;
        fill-rule: evenodd;
        filter: url(#filter);
      }
    </style>
    <filter id="filter" x="1894" y="2503" width="14" height="11.97" filterUnits="userSpaceOnUse">
      <feFlood result="flood" flood-color="#1890ff"/>
      <feComposite result="composite" operator="in" in2="SourceGraphic"/>
      <feBlend result="blend" in2="SourceGraphic"/>
    </filter>
  </defs>
  <path id="ai_icon_duanxin.svg" class="cls-1" d="M1906.73,2503h-11.46a1.241,1.241,0,0,0-1.27,1.21v7.17a1.251,1.251,0,0,0,1.27,1.23h2.83a1.205,1.205,0,0,0,.2.26l1.8,1.74a1.3,1.3,0,0,0,1.8,0l1.8-1.74a1.205,1.205,0,0,0,.2-0.26h2.83a1.251,1.251,0,0,0,1.27-1.23v-7.17a1.241,1.241,0,0,0-1.27-1.21h0Zm0.26,8.11a0.662,0.662,0,0,1-.66.67h-2.81l-2.02,2.01a0.664,0.664,0,0,1-.94,0l-2.01-2.01h-2.88a0.662,0.662,0,0,1-.66-0.67v-6.46a0.651,0.651,0,0,1,.66-0.65h10.66a0.651,0.651,0,0,1,.66.65v6.46h0Zm-8.65-2.8a0.327,0.327,0,0,1-.34.32h-0.8a0.327,0.327,0,0,1-.34-0.32v-0.75a0.327,0.327,0,0,1,.34-0.32h0.8a0.327,0.327,0,0,1,.34.32v0.75Zm3.4,0a0.327,0.327,0,0,1-.34.32h-0.81a0.324,0.324,0,0,1-.33-0.32v-0.75a0.324,0.324,0,0,1,.33-0.32h0.81a0.327,0.327,0,0,1,.34.32v0.75Zm3.4,0a0.327,0.327,0,0,1-.34.32H1904a0.327,0.327,0,0,1-.34-0.32v-0.75a0.327,0.327,0,0,1,.34-0.32h0.8a0.327,0.327,0,0,1,.34.32v0.75Z" transform="translate(-1894 -2503)"/>
</svg>
