<?xml version="1.0" standalone="no"?><!DOCTYPE svg PUBLIC "-//W3C//DTD SVG 1.1//EN" "http://www.w3.org/Graphics/SVG/1.1/DTD/svg11.dtd"><svg t="1561635988445" class="icon" viewBox="0 0 1024 1024" version="1.1" xmlns="http://www.w3.org/2000/svg" p-id="6178" width="14" height="14" xmlns:xlink="http://www.w3.org/1999/xlink"><defs><style type="text/css"></style></defs><path d="M548.571429 731.428571c104.813714 0 219.428571-107.446857 219.428571-219.428571V219.428571c0-111.981714-114.614857-219.428571-219.428571-219.428571-177.956571 0-292.571429 107.446857-292.571429 219.428571v292.571429c0 111.981714 114.614857 219.428571 292.571429 219.428571zM329.142857 219.428571c0-69.778286 82.870857-146.285714 219.428572-146.285714 63.414857 0 146.285714 76.507429 146.285714 146.285714v292.571429c0 69.778286-82.870857 146.285714-146.285714 146.285714-136.557714 0-219.428571-76.507429-219.428572-146.285714V219.428571z m585.142857 146.285715c-52.882286 0-68.973714 15.36-73.142857 0v73.142857c4.169143 212.114286-145.261714 354.742857-292.571428 365.714286-220.452571-10.971429-369.883429-153.6-365.714286-365.714286V365.714286c-4.169143 15.36-20.260571 0-73.142857 0 16.091429 0 0 15.36 0 0v73.142857c0 236.251429 163.181714 403.017143 365.714285 438.857143v73.142857H402.285714c-35.108571 7.314286-51.2 22.674286-73.142857 73.142857 21.942857-15.36 38.034286 0 73.142857 0h219.428572c35.108571 0 51.2-15.36 73.142857 0-21.942857-50.468571-38.034286-65.828571-73.142857-73.142857H548.571429v-73.142857c202.532571-38.034286 365.714286-202.605714 365.714285-438.857143V365.714286c0 15.36-16.091429 0 0 0z" p-id="6179" fill="#1890FF"></path></svg>