<?xml version="1.0" standalone="no"?><!DOCTYPE svg PUBLIC "-//W3C//DTD SVG 1.1//EN" "http://www.w3.org/Graphics/SVG/1.1/DTD/svg11.dtd"><svg t="1562845891739" class="icon" viewBox="0 0 1024 1024" version="1.1" xmlns="http://www.w3.org/2000/svg" p-id="6571" xmlns:xlink="http://www.w3.org/1999/xlink" width="14" height="14"><defs><style type="text/css"></style></defs><path d="M512 0a512 512 0 1 1 0 1024A512 512 0 0 1 512 0z m0 73.142857a438.857143 438.857143 0 1 0 0 877.714286A438.857143 438.857143 0 0 0 512 73.142857z" fill="#1890FF" p-id="6572"></path><path d="M292.571429 226.962286h248.246857c51.346286 0 92.598857 12.580571 122.88 37.668571 29.622857 25.161143 44.397714 59.757714 44.397714 103.862857 0 31.378286-8.557714 58.88-24.868571 81.700572-17.188571 20.48-39.716571 35.328-67.730286 44.763428 36.571429 6.290286 64.585143 22.016 84.845714 45.641143 20.187429 23.552 31.085714 53.394286 31.085714 91.209143 0 55.003429-19.456 95.817143-57.563428 122.587429-32.694857 22.016-77.824 33.792-134.582857 33.792H292.571429V226.962286z m63.780571 54.198857v191.049143h168.886857c38.912 0 68.461714-8.630857 88.722286-24.356572 20.187429-16.530286 31.085714-40.96 31.085714-73.142857 0-31.451429-10.093714-55.003429-30.354286-70.729143-20.187429-15.725714-49.737143-22.820571-88.722285-22.820571H356.352z m0 244.516571v208.310857h177.444571c38.912 0 69.266286-7.899429 92.598858-22.016 27.209143-17.334857 41.252571-44.836571 41.252571-80.969142 0-36.205714-12.434286-62.902857-35.84-80.164572-22.528-17.334857-55.222857-25.161143-98.011429-25.161143H356.352z" fill="#1890FF" p-id="6573"></path></svg>