<?xml version="1.0" standalone="no"?><!DOCTYPE svg PUBLIC "-//W3C//DTD SVG 1.1//EN" "http://www.w3.org/Graphics/SVG/1.1/DTD/svg11.dtd"><svg t="1562845911622" class="icon" viewBox="0 0 1024 1024" version="1.1" xmlns="http://www.w3.org/2000/svg" p-id="6692" xmlns:xlink="http://www.w3.org/1999/xlink" width="14" height="14"><defs><style type="text/css"></style></defs><path d="M512 0a512 512 0 1 1 0 1024A512 512 0 0 1 512 0z m0 73.142857a438.857143 438.857143 0 1 0 0 877.714286A438.857143 438.857143 0 0 0 512 73.142857z" fill="#1890FF" p-id="6693"></path><path d="M516.096 219.428571c69.339429 0 128.146286 18.651429 175.542857 55.881143 47.396571 37.229714 75.483429 87.771429 84.260572 150.674286H706.56c-8.777143-46.08-31.597714-81.554286-66.706286-106.349714-34.230857-23.917714-75.483429-35.474286-124.635428-35.474286-72.850286 0-129.024 25.746286-168.521143 77.165714-36.864 47.835429-55.296 110.811429-55.296 189.732572s17.554286 141.897143 54.418286 187.977143c38.619429 48.786286 93.915429 73.581714 167.643428 73.581714 50.029714 0 92.16-13.238857 127.268572-39.862857 36.864-28.379429 62.317714-70.070857 74.605714-125.074286h69.339428c-14.043429 73.654857-46.518857 131.291429-98.304 172.032-48.274286 38.180571-106.203429 57.636571-172.909714 57.636571-97.426286 0-172.032-32.768-223.817143-97.499428-47.396571-58.514286-70.217143-134.802286-70.217143-228.790857 0-93.988571 23.698286-171.154286 71.972572-231.424C344.064 252.269714 419.547429 219.428571 516.096 219.428571z" fill="#1890FF" p-id="6694"></path></svg>