<?xml version="1.0" standalone="no"?><!DOCTYPE svg PUBLIC "-//W3C//DTD SVG 1.1//EN" "http://www.w3.org/Graphics/SVG/1.1/DTD/svg11.dtd"><svg t="1562845915525" class="icon" viewBox="0 0 1024 1024" version="1.1" xmlns="http://www.w3.org/2000/svg" p-id="6813" xmlns:xlink="http://www.w3.org/1999/xlink" width="14" height="14"><defs><style type="text/css"></style></defs><path d="M512 0a512 512 0 1 1 0 1024A512 512 0 0 1 512 0z m0 73.142857a438.857143 438.857143 0 1 0 0 877.714286A438.857143 438.857143 0 0 0 512 73.142857z" fill="#1890FF" p-id="6814"></path><path d="M292.571429 219.428571h224.694857c99.181714 0 173.787429 28.379429 224.694857 86.893715 46.518857 53.174857 70.217143 130.340571 70.217143 229.668571 0 97.499429-25.453714 174.665143-75.483429 229.668572-52.662857 57.636571-128.146286 86.893714-226.450286 86.893714H292.571429V219.428571z m71.972571 62.902858v507.245714h133.412571c81.627429 0 143.067429-22.162286 184.32-65.609143 38.619429-42.569143 58.806857-105.545143 58.806858-187.977143 0-85.138286-18.432-148.114286-54.418286-188.854857-38.619429-43.446857-98.304-64.731429-180.809143-64.731429H364.544z" fill="#1890FF" p-id="6815"></path></svg>