<?xml version="1.0" standalone="no"?><!DOCTYPE svg PUBLIC "-//W3C//DTD SVG 1.1//EN" "http://www.w3.org/Graphics/SVG/1.1/DTD/svg11.dtd"><svg t="1562845940410" class="icon" viewBox="0 0 1024 1024" version="1.1" xmlns="http://www.w3.org/2000/svg" p-id="7175" xmlns:xlink="http://www.w3.org/1999/xlink" width="14" height="14"><defs><style type="text/css"></style></defs><path d="M512 0a512 512 0 1 1 0 1024A512 512 0 0 1 512 0z m0 73.142857a438.857143 438.857143 0 1 0 0 877.714286A438.857143 438.857143 0 0 0 512 73.142857z m-23.04 135.021714c71.606857 0 128.731429 16.896 171.373714 52.297143 40.228571 32.987429 65.170286 80.457143 75.629715 143.213715H669.988571c-8.850286-43.446857-28.16-76.434286-57.929142-99.766858-31.378286-24.941714-72.411429-37.010286-123.099429-37.010285-62.756571 0-111.835429 21.723429-148.845714 65.974857-37.010286 43.446857-54.710857 102.180571-54.710857 176.201143 0 72.411429 17.700571 129.536 53.101714 171.373714 37.814857 44.251429 94.134857 66.779429 168.96 66.779429 31.378286 0 61.147429-4.827429 90.112-12.873143 28.16-8.045714 52.297143-19.309714 72.411428-32.182857V555.739429H489.764571v-57.124572h245.394286v234.934857c-27.355429 22.528-61.147429 39.424-100.571428 52.297143a450.486857 450.486857 0 0 1-133.558858 19.309714c-90.916571 0-161.718857-28.964571-211.602285-86.893714C242.761143 664.356571 219.428571 594.358857 219.428571 509.074286s22.528-155.282286 69.193143-210.797715c49.078857-60.342857 115.858286-90.112 200.338286-90.112z" fill="#1890FF" p-id="7176"></path></svg>