<?xml version="1.0" standalone="no"?><!DOCTYPE svg PUBLIC "-//W3C//DTD SVG 1.1//EN" "http://www.w3.org/Graphics/SVG/1.1/DTD/svg11.dtd"><svg t="1562846003384" class="icon" viewBox="0 0 1024 1024" version="1.1" xmlns="http://www.w3.org/2000/svg" p-id="8615" xmlns:xlink="http://www.w3.org/1999/xlink" width="14" height="14"><defs><style type="text/css"></style></defs><path d="M512 0a512 512 0 1 1 0 1024A512 512 0 0 1 512 0z m0 73.142857a438.857143 438.857143 0 1 0 0 877.714286A438.857143 438.857143 0 0 0 512 73.142857z m5.851429 146.285714c64.365714 0 115.858286 14.482286 152.868571 44.251429 38.619429 30.573714 60.342857 76.434286 65.974857 136.777143h-65.097143c-7.314286-41.837714-23.405714-72.411429-48.274285-92.525714-25.819429-20.918857-62.025143-30.573714-108.690286-30.573715-42.642286 0-75.629714 6.436571-99.766857 20.918857-27.355429 16.091429-40.96 40.228571-40.96 73.216 0 28.964571 16.091429 52.297143 49.005714 69.997715 14.482286 8.045714 49.883429 20.114286 105.398857 36.205714 75.629714 22.528 125.513143 41.033143 149.650286 55.515429 47.542857 28.964571 71.68 69.193143 71.68 121.490285 0 49.883429-20.187429 90.112-60.416 119.076572-40.228571 28.16-94.134857 42.642286-162.523429 42.642285-67.584 0-120.685714-14.482286-159.305143-43.446857C322.340571 738.377143 297.398857 686.08 292.571429 615.277714h65.170285c5.632 49.883429 23.405714 86.893714 52.297143 110.226286 26.550857 20.918857 65.170286 32.182857 116.662857 32.182857 46.665143 0 85.284571-8.850286 114.249143-26.550857 28.964571-17.700571 43.446857-41.837714 43.446857-72.411429 0-36.205714-19.309714-64.365714-57.051428-84.48-16.091429-9.654857-57.197714-23.332571-121.563429-41.837714-69.193143-20.918857-113.371429-37.010286-131.949714-46.665143-44.251429-25.746286-65.974857-62.756571-65.974857-111.030857 0-49.883429 20.918857-89.307429 63.634285-116.662857C409.161143 232.301714 458.24 219.428571 517.851429 219.428571z" fill="#1890FF" p-id="8616"></path></svg>